# xmcd
#
# Track frame offsets: 
#        150
#        17152
#        38682
#        61994
#        84909
#        101364
#        122212
#        185063
#        195260
#        216660
#        234475
#        255330
#
# Disc length: 3818 seconds
#
# Revision: 0
# Processed by: cddbd v1.5.2PL0 Copyright (c) Steve Scherf et al.
# Submitted via: ExactAudioCopy v1.0b1
#
DISCID=9b0ee80c
DTITLE=Chantel McGregor - Like No Othet [FLAC]
DYEAR=2011
DGENRE=Blues
TTITLE0=Fabulous
TTITLE1=I'm No Good For You
TTITLE2=Like No Other
TTITLE3=Freefalling
TTITLE4=Rhiannon
TTITLE5=Caught Out
TTITLE6=Daydream
TTITLE7=Cat Song
TTITLE8=Screams Everlasting
TTITLE9=Happy Song
TTITLE10=Not Here With Me
TTITLE11=Help Me
EXTD=
EXTT0=
EXTT1=
EXTT2=
EXTT3=
EXTT4=
EXTT5=
EXTT6=
EXTT7=
EXTT8=
EXTT9=
EXTT10=
EXTT11=
PLAYORDER=
